<svg width="582" height="96" viewBox="0 0 582 96" fill="none" xmlns="http://www.w3.org/2000/svg">
<path d="M45 14.1027C40.5 7.81145 33.1335 3.71054 24.8085 3.71054C11.1071 3.71054 0 14.8176 0 28.5191C0 34.4753 2.09909 39.9404 5.59764 44.2165L45 92.2895V14.1027Z" fill="#FF3F62"/>
<path d="M45 62.1336V92.2894L58.5891 75.7102V62.1336H45Z" fill="#FF3F62"/>
<path d="M58.5891 44.3118V30.7227H76.4109V44.3118H84.3244L84.4024 44.2165C87.9009 39.9404 90 34.4753 90 28.5191C90 14.8176 78.8929 3.71054 65.1915 3.71054C56.8665 3.71054 49.5 7.81145 45 14.1027V44.3118H58.5891Z" fill="#FF3F62"/>
<path d="M76.4109 44.3118V30.7227H67.5V75.7227H76.4109V62.1336H90V44.3118H76.4109Z" fill="#6596E2"/>
<path d="M67.5 30.7227H58.5891V44.3118H45V62.1336H58.5891V75.7227H67.5V30.7227Z" fill="#6596E2"/>
<path d="M161.296 25.392V70H155.472V49.776H132.752V70H126.928V25.392H132.752V44.976H155.472V25.392H161.296ZM202.345 34.928V70H196.521V64.816C195.411 66.608 193.854 68.016 191.849 69.04C189.886 70.0213 187.71 70.512 185.321 70.512C182.59 70.512 180.137 69.9573 177.961 68.848C175.785 67.696 174.057 65.9893 172.777 63.728C171.539 61.4667 170.921 58.7147 170.921 55.472V34.928H176.681V54.704C176.681 58.16 177.555 60.8267 179.305 62.704C181.054 64.5387 183.443 65.456 186.473 65.456C189.587 65.456 192.041 64.496 193.833 62.576C195.625 60.656 196.521 57.8613 196.521 54.192V34.928H202.345ZM254.354 34.288C257.085 34.288 259.517 34.864 261.65 36.016C263.783 37.1253 265.469 38.8107 266.706 41.072C267.943 43.3333 268.562 46.0853 268.562 49.328V70H262.802V50.16C262.802 46.6613 261.927 43.9947 260.178 42.16C258.471 40.2827 256.146 39.344 253.202 39.344C250.173 39.344 247.762 40.3253 245.97 42.288C244.178 44.208 243.282 47.0027 243.282 50.672V70H237.522V50.16C237.522 46.6613 236.647 43.9947 234.898 42.16C233.191 40.2827 230.866 39.344 227.922 39.344C224.893 39.344 222.482 40.3253 220.69 42.288C218.898 44.208 218.002 47.0027 218.002 50.672V70H212.178V34.928H218.002V39.984C219.154 38.1493 220.69 36.7413 222.61 35.76C224.573 34.7787 226.727 34.288 229.074 34.288C232.018 34.288 234.621 34.9493 236.882 36.272C239.143 37.5947 240.829 39.536 241.938 42.096C242.919 39.6213 244.541 37.7013 246.802 36.336C249.063 34.9707 251.581 34.288 254.354 34.288ZM275.94 52.336C275.94 48.752 276.665 45.616 278.116 42.928C279.566 40.1973 281.55 38.0853 284.068 36.592C286.628 35.0987 289.465 34.352 292.58 34.352C295.652 34.352 298.318 35.0133 300.58 36.336C302.841 37.6587 304.526 39.3227 305.636 41.328V34.928H311.524V70H305.636V63.472C304.484 65.52 302.756 67.2267 300.452 68.592C298.19 69.9147 295.545 70.576 292.516 70.576C289.401 70.576 286.585 69.808 284.068 68.272C281.55 66.736 279.566 64.5813 278.116 61.808C276.665 59.0347 275.94 55.8773 275.94 52.336ZM305.636 52.4C305.636 49.7547 305.102 47.4507 304.036 45.488C302.969 43.5253 301.518 42.032 299.684 41.008C297.892 39.9413 295.908 39.408 293.732 39.408C291.556 39.408 289.572 39.92 287.78 40.944C285.988 41.968 284.558 43.4613 283.492 45.424C282.425 47.3867 281.892 49.6907 281.892 52.336C281.892 55.024 282.425 57.3707 283.492 59.376C284.558 61.3387 285.988 62.8533 287.78 63.92C289.572 64.944 291.556 65.456 293.732 65.456C295.908 65.456 297.892 64.944 299.684 63.92C301.518 62.8533 302.969 61.3387 304.036 59.376C305.102 57.3707 305.636 55.0453 305.636 52.4ZM338.454 34.288C342.72 34.288 346.176 35.5893 348.822 38.192C351.467 40.752 352.79 44.464 352.79 49.328V70H347.03V50.16C347.03 46.6613 346.155 43.9947 344.406 42.16C342.656 40.2827 340.267 39.344 337.238 39.344C334.166 39.344 331.712 40.304 329.878 42.224C328.086 44.144 327.19 46.9387 327.19 50.608V70H321.366V34.928H327.19V39.92C328.342 38.128 329.899 36.7413 331.862 35.76C333.867 34.7787 336.064 34.288 338.454 34.288ZM413.734 25.392V70H407.91V49.776H385.19V70H379.366V25.392H385.19V44.976H407.91V25.392H413.734ZM455.678 51.12C455.678 52.2293 455.614 53.4027 455.486 54.64H427.454C427.667 58.096 428.841 60.8053 430.974 62.768C433.15 64.688 435.774 65.648 438.846 65.648C441.363 65.648 443.454 65.072 445.118 63.92C446.825 62.7253 448.019 61.1467 448.702 59.184H454.974C454.035 62.5547 452.158 65.3067 449.342 67.44C446.526 69.5307 443.027 70.576 438.846 70.576C435.518 70.576 432.531 69.8293 429.886 68.336C427.283 66.8427 425.235 64.7307 423.742 62C422.249 59.2267 421.502 56.0267 421.502 52.4C421.502 48.7733 422.227 45.5947 423.678 42.864C425.129 40.1333 427.155 38.0427 429.758 36.592C432.403 35.0987 435.433 34.352 438.846 34.352C442.174 34.352 445.118 35.0773 447.678 36.528C450.238 37.9787 452.201 39.984 453.566 42.544C454.974 45.0613 455.678 47.92 455.678 51.12ZM449.662 49.904C449.662 47.6853 449.171 45.7867 448.19 44.208C447.209 42.5867 445.865 41.3707 444.158 40.56C442.494 39.7067 440.638 39.28 438.59 39.28C435.646 39.28 433.129 40.2187 431.038 42.096C428.99 43.9733 427.817 46.576 427.518 49.904H449.662ZM461.19 52.336C461.19 48.752 461.915 45.616 463.366 42.928C464.816 40.1973 466.8 38.0853 469.318 36.592C471.878 35.0987 474.715 34.352 477.83 34.352C480.902 34.352 483.568 35.0133 485.83 36.336C488.091 37.6587 489.776 39.3227 490.886 41.328V34.928H496.774V70H490.886V63.472C489.734 65.52 488.006 67.2267 485.702 68.592C483.44 69.9147 480.795 70.576 477.766 70.576C474.651 70.576 471.835 69.808 469.318 68.272C466.8 66.736 464.816 64.5813 463.366 61.808C461.915 59.0347 461.19 55.8773 461.19 52.336ZM490.886 52.4C490.886 49.7547 490.352 47.4507 489.286 45.488C488.219 43.5253 486.768 42.032 484.934 41.008C483.142 39.9413 481.158 39.408 478.982 39.408C476.806 39.408 474.822 39.92 473.03 40.944C471.238 41.968 469.808 43.4613 468.742 45.424C467.675 47.3867 467.142 49.6907 467.142 52.336C467.142 55.024 467.675 57.3707 468.742 59.376C469.808 61.3387 471.238 62.8533 473.03 63.92C474.822 64.944 476.806 65.456 478.982 65.456C481.158 65.456 483.142 64.944 484.934 63.92C486.768 62.8533 488.219 61.3387 489.286 59.376C490.352 57.3707 490.886 55.0453 490.886 52.4ZM512.44 22.64V70H506.616V22.64H512.44ZM529.47 39.728V60.4C529.47 62.1067 529.832 63.3227 530.558 64.048C531.283 64.7307 532.542 65.072 534.333 65.072H538.622V70H533.374C530.131 70 527.699 69.2533 526.078 67.76C524.456 66.2667 523.646 63.8133 523.646 60.4V39.728H519.102V34.928H523.646V26.096H529.47V34.928H538.622V39.728H529.47ZM563.086 34.288C565.731 34.288 568.121 34.864 570.254 36.016C572.387 37.1253 574.051 38.8107 575.246 41.072C576.483 43.3333 577.102 46.0853 577.102 49.328V70H571.342V50.16C571.342 46.6613 570.467 43.9947 568.718 42.16C566.969 40.2827 564.579 39.344 561.55 39.344C558.478 39.344 556.025 40.304 554.19 42.224C552.398 44.144 551.502 46.9387 551.502 50.608V70H545.678V22.64H551.502V39.92C552.654 38.128 554.233 36.7413 556.238 35.76C558.286 34.7787 560.569 34.288 563.086 34.288Z" fill="#6596E2"/>
</svg>
