<svg width="32" height="32" viewBox="0 0 32 32" fill="none" xmlns="http://www.w3.org/2000/svg">
<path d="M16 3.94762C14.4 1.71073 11.7808 0.252625 8.82082 0.252625C3.94919 0.252625 0 4.20181 0 9.07344C0 11.1912 0.746343 13.1343 1.99027 14.6548L16 31.7474V3.94762Z" fill="#FF3F62"/>
<path d="M16 21.0253V31.7473L20.8317 25.8525V21.0253H16Z" fill="#FF3F62"/>
<path d="M20.8317 14.6886V9.85696H27.1683V14.6886H29.982L30.0097 14.6548C31.2537 13.1343 32 11.1912 32 9.07344C32 4.20181 28.0508 0.252625 23.1792 0.252625C20.2192 0.252625 17.6 1.71073 16 3.94762V14.6886H20.8317Z" fill="#FF3F62"/>
<path d="M27.1683 14.6886V9.85693H24V25.8569H27.1683V21.0253H32V14.6886H27.1683Z" fill="#6596E2"/>
<path d="M24 9.85693H20.8317V14.6886H16V21.0253H20.8317V25.8569H24V9.85693Z" fill="#6596E2"/>
<rect x="21.6889" y="9.95557" width="4.62222" height="15.6444" fill="#6596E2"/>
</svg>
